<svg width="110" height="30" viewBox="0 0 110 30" fill="none" xmlns="http://www.w3.org/2000/svg">
<rect x="53" y="6.42856" width="55" height="17.1429" fill="#FFC500"/>
<path d="M0.483147 20.201L1.92231 19.8927V12.995L0.328951 12.6866V10.8773H4.7184L4.85203 12.4707C5.2221 11.9019 5.67784 11.4599 6.21924 11.1446C6.76064 10.8294 7.36714 10.6717 8.03875 10.6717C9.16267 10.6717 10.0399 11.0247 10.6704 11.7305C11.3008 12.4364 11.6161 13.5432 11.6161 15.0509V19.8927L13.0553 20.201V22H7.31917V20.201L8.60413 19.8927V15.0612C8.60413 14.3142 8.45336 13.7865 8.15183 13.4781C7.85029 13.1629 7.39455 13.0052 6.78462 13.0052C6.38714 13.0052 6.03077 13.0875 5.71553 13.2519C5.40028 13.4096 5.13644 13.6357 4.92399 13.9304V19.8927L6.137 20.201V22H0.483147V20.201ZM19.2334 22.2159C17.6297 22.2159 16.3482 21.7019 15.3888 20.6739C14.4293 19.6459 13.9496 18.3404 13.9496 16.7573V16.3461C13.9496 14.6945 14.4019 13.3342 15.3065 12.2651C16.218 11.196 17.4378 10.6649 18.9661 10.6717C20.4669 10.6717 21.632 11.124 22.4612 12.0287C23.2904 12.9333 23.7051 14.1566 23.7051 15.6985V17.333H17.0644L17.0438 17.3947C17.0986 18.128 17.3419 18.731 17.7737 19.2039C18.2123 19.6768 18.8051 19.9132 19.552 19.9132C20.2168 19.9132 20.7685 19.8481 21.2071 19.7179C21.6457 19.5808 22.1254 19.3684 22.6462 19.0806L23.4583 20.9309C22.9992 21.2941 22.403 21.5991 21.6697 21.8458C20.9432 22.0925 20.1311 22.2159 19.2334 22.2159ZM18.9661 12.9847C18.411 12.9847 17.9724 13.1971 17.6503 13.622C17.3282 14.0469 17.1295 14.6054 17.0541 15.2976L17.0849 15.349H20.7651V15.0817C20.7651 14.4444 20.6143 13.9373 20.3127 13.5603C20.0181 13.1766 19.5692 12.9847 18.9661 12.9847ZM30.4588 22.2159C28.8552 22.2159 27.5737 21.7019 26.6142 20.6739C25.6548 19.6459 25.1751 18.3404 25.1751 16.7573V16.3461C25.1751 14.6945 25.6274 13.3342 26.532 12.2651C27.4435 11.196 28.6633 10.6649 30.1916 10.6717C31.6924 10.6717 32.8574 11.124 33.6867 12.0287C34.5159 12.9333 34.9305 14.1566 34.9305 15.6985V17.333H28.2898L28.2693 17.3947C28.3241 18.128 28.5674 18.731 28.9991 19.2039C29.4377 19.6768 30.0305 19.9132 30.7775 19.9132C31.4423 19.9132 31.9939 19.8481 32.4325 19.7179C32.8711 19.5808 33.3509 19.3684 33.8717 19.0806L34.6838 20.9309C34.2246 21.2941 33.6284 21.5991 32.8951 21.8458C32.1687 22.0925 31.3566 22.2159 30.4588 22.2159ZM30.1916 12.9847C29.6365 12.9847 29.1979 13.1971 28.8758 13.622C28.5537 14.0469 28.3549 14.6054 28.2795 15.2976L28.3104 15.349H31.9905V15.0817C31.9905 14.4444 31.8398 13.9373 31.5382 13.5603C31.2435 13.1766 30.7946 12.9847 30.1916 12.9847ZM43.5963 20.6431C43.2468 21.1571 42.8322 21.5477 42.3525 21.815C41.8796 22.0822 41.3382 22.2159 40.7283 22.2159C39.3577 22.2159 38.292 21.7156 37.5313 20.715C36.7774 19.7145 36.4005 18.3918 36.4005 16.7471V16.5312C36.4005 14.7768 36.7809 13.3616 37.5416 12.2857C38.3023 11.2097 39.3714 10.6717 40.7488 10.6717C41.304 10.6717 41.8042 10.7951 42.2497 11.0418C42.6951 11.2817 43.0858 11.6243 43.4216 12.0698V8.08125L41.8179 7.77285V5.96362H43.4216H46.4233V19.8927L47.8624 20.201V22H43.8225L43.5963 20.6431ZM39.4022 16.7471C39.4022 17.7202 39.5633 18.4878 39.8854 19.0497C40.2143 19.6048 40.7488 19.8824 41.489 19.8824C41.9276 19.8824 42.3079 19.7933 42.63 19.6151C42.9521 19.4369 43.216 19.1799 43.4216 18.8441V14.1257C43.216 13.7694 42.9521 13.4952 42.63 13.3033C42.3148 13.1046 41.9413 13.0052 41.5095 13.0052C40.7763 13.0052 40.2417 13.3308 39.9059 13.9818C39.5701 14.6329 39.4022 15.4827 39.4022 16.5312V16.7471Z" fill="#FFC500"/>
<path d="M53.6293 12.6866V10.8773H58.0188L58.1422 12.3473C58.4985 11.8128 58.944 11.4016 59.4785 11.1138C60.0199 10.8191 60.6436 10.6717 61.3494 10.6717C62.0622 10.6717 62.6721 10.8294 63.1792 11.1446C63.6864 11.4599 64.0701 11.9361 64.3305 12.5735C64.6732 11.9773 65.1187 11.5112 65.6669 11.1754C66.2152 10.8396 66.8594 10.6717 67.5995 10.6717C68.696 10.6717 69.5595 11.0521 70.19 11.8128C70.8273 12.5666 71.146 13.718 71.146 15.2668V19.8927L72.5955 20.201V22H66.8491V20.201L68.1443 19.8927V15.2565C68.1443 14.4136 68.0073 13.8276 67.7331 13.4987C67.459 13.1697 67.0513 13.0052 66.5099 13.0052C66.085 13.0052 65.7149 13.1012 65.3996 13.2931C65.0912 13.4781 64.8445 13.7385 64.6595 14.0743C64.6595 14.2045 64.6629 14.3176 64.6698 14.4136C64.6766 14.5027 64.6801 14.5952 64.6801 14.6911V19.8927L65.8931 20.201V22H60.4757V20.201L61.6887 19.8927V15.2565C61.6887 14.4341 61.5516 13.855 61.2775 13.5192C61.0033 13.1766 60.5922 13.0052 60.0439 13.0052C59.6396 13.0052 59.2832 13.084 58.9748 13.2417C58.6733 13.3924 58.4231 13.6083 58.2244 13.8893V19.8927L59.5196 20.201V22H53.7835V20.201L55.233 19.8927V12.995L53.6293 12.6866ZM80.6548 22C80.5725 21.815 80.5006 21.6265 80.4389 21.4346C80.3772 21.2359 80.3292 21.0371 80.295 20.8384C79.9386 21.2496 79.5034 21.582 78.9894 21.8355C78.4823 22.0891 77.8998 22.2159 77.2419 22.2159C76.1522 22.2159 75.2853 21.9212 74.6411 21.3318C74.0038 20.7356 73.6851 19.9269 73.6851 18.9058C73.6851 17.8641 74.1031 17.0589 74.9392 16.4901C75.7753 15.9213 77.002 15.6368 78.6194 15.6368H80.1511V14.5472C80.1511 14.0126 79.9969 13.598 79.6885 13.3033C79.3801 13.0087 78.9243 12.8613 78.3213 12.8613C77.9786 12.8613 77.6736 12.9024 77.4064 12.9847C77.1391 13.0601 76.9232 13.1526 76.7587 13.2622L76.5634 14.4547H74.3019L74.3122 11.9875C74.8604 11.6175 75.4875 11.3057 76.1934 11.0521C76.9061 10.7985 77.6805 10.6717 78.5166 10.6717C79.8941 10.6717 81.0111 11.011 81.8678 11.6894C82.7313 12.361 83.163 13.3205 83.163 14.5678V19.1628C83.163 19.3341 83.163 19.4952 83.163 19.6459C83.1699 19.7967 83.1836 19.9406 83.2041 20.0777L84.119 20.201V22H80.6548ZM78.054 19.9955C78.5063 19.9955 78.9175 19.8995 79.2876 19.7076C79.6576 19.5089 79.9455 19.2622 80.1511 18.9675V17.2713H78.6194C77.982 17.2713 77.4989 17.4221 77.1699 17.7236C76.841 18.0183 76.6765 18.3747 76.6765 18.7927C76.6765 19.1696 76.7964 19.4643 77.0363 19.6768C77.283 19.8892 77.6222 19.9955 78.054 19.9955ZM94.224 14.7014H92.2092L91.8905 13.3136C91.6849 13.1492 91.4245 13.0121 91.1092 12.9024C90.8009 12.7928 90.4582 12.738 90.0813 12.738C89.5536 12.738 89.1355 12.8579 88.8271 13.0978C88.5188 13.3308 88.3646 13.6254 88.3646 13.9818C88.3646 14.3176 88.5119 14.5986 88.8066 14.8247C89.1013 15.044 89.6906 15.2394 90.5747 15.4107C91.9522 15.6848 92.9733 16.0892 93.6381 16.6237C94.3028 17.1514 94.6352 17.8813 94.6352 18.8133C94.6352 19.8138 94.2034 20.6328 93.3399 21.2701C92.4833 21.9006 91.3525 22.2159 89.9476 22.2159C89.091 22.2159 88.3029 22.0925 87.5833 21.8458C86.8706 21.5922 86.2367 21.2324 85.6816 20.7664L85.6507 18.2685H87.7478L88.159 19.7179C88.3371 19.8687 88.5804 19.9817 88.8888 20.0571C89.1972 20.1257 89.5193 20.1599 89.8551 20.1599C90.4651 20.1599 90.9276 20.0503 91.2429 19.831C91.565 19.6117 91.726 19.3136 91.726 18.9366C91.726 18.6077 91.565 18.3233 91.2429 18.0834C90.9208 17.8436 90.328 17.6311 89.4645 17.4461C88.1555 17.1788 87.1653 16.7848 86.4936 16.2639C85.8289 15.7362 85.4965 15.0201 85.4965 14.1154C85.4965 13.1834 85.8803 12.3816 86.6478 11.71C87.4154 11.0315 88.5085 10.6923 89.9271 10.6923C90.7906 10.6923 91.6061 10.8088 92.3737 11.0418C93.1481 11.2748 93.7546 11.5729 94.1932 11.9361L94.224 14.7014ZM95.6632 7.77285V5.96362H100.258V15.2565H100.926L102.653 12.8202L101.677 12.6866V10.8773H107.146V12.6866L105.83 12.9847L103.825 15.7396L106.632 19.9646L107.773 20.201V22H102.633V20.201L103.25 20.0982L101.543 17.3433H100.258V19.8927L101.553 20.201V22H95.8174V20.201L97.2668 19.8927V8.08125L95.6632 7.77285Z" fill="#4D4D4D"/>
</svg>
