<svg width="150" height="150" viewBox="0 0 150 150" fill="none" xmlns="http://www.w3.org/2000/svg">
<g clip-path="url(#clip0)">
<path d="M-30 0L1252.5 0" stroke="white" stroke-opacity="0.9"/>
<path d="M-30 0L1252.5 0" stroke="white" stroke-opacity="0.9"/>
<path d="M-30 0L1252.5 0" stroke="white" stroke-opacity="0.9"/>
<path d="M-30 30L1252.5 30" stroke="white" stroke-opacity="0.9"/>
<path d="M-30 30L1252.5 30" stroke="white" stroke-opacity="0.9"/>
<path d="M-30 30L1252.5 30" stroke="white" stroke-opacity="0.9"/>
<path d="M-30 60L1252.5 60" stroke="white" stroke-opacity="0.9"/>
<path d="M-30 60L1252.5 60" stroke="white" stroke-opacity="0.9"/>
<path d="M-30 60L1252.5 60" stroke="white" stroke-opacity="0.9"/>
<path d="M-30 90L1252.5 90" stroke="white" stroke-opacity="0.9"/>
<path d="M-30 90L1252.5 90" stroke="white" stroke-opacity="0.9"/>
<path d="M-30 90L1252.5 90" stroke="white" stroke-opacity="0.9"/>
<path d="M-30 120L1252.5 120" stroke="white" stroke-opacity="0.9"/>
<path d="M-30 120L1252.5 120" stroke="white" stroke-opacity="0.9"/>
<path d="M-30 120L1252.5 120" stroke="white" stroke-opacity="0.9"/>
<path d="M-30 150L1252.5 150" stroke="white" stroke-opacity="0.9"/>
<path d="M-30 150L1252.5 150" stroke="white" stroke-opacity="0.9"/>
<path d="M-30 150L1252.5 150" stroke="white" stroke-opacity="0.9"/>
<path d="M150 -30L150 1252.5" stroke="white" stroke-opacity="0.9"/>
<path d="M150 -30L150 1252.5" stroke="white" stroke-opacity="0.9"/>
<path d="M150 -30L150 1252.5" stroke="white" stroke-opacity="0.9"/>
<path d="M150 -30L150 1252.5" stroke="white" stroke-opacity="0.9"/>
<path d="M150 -30L150 1252.5" stroke="white" stroke-opacity="0.9"/>
<path d="M150 -30L150 1252.5" stroke="white" stroke-opacity="0.9"/>
<path d="M120 -30L120 1252.5" stroke="white" stroke-opacity="0.9"/>
<path d="M120 -30L120 1252.5" stroke="white" stroke-opacity="0.9"/>
<path d="M120 -30L120 1252.5" stroke="white" stroke-opacity="0.9"/>
<path d="M90 -30L89.9999 1252.5" stroke="white" stroke-opacity="0.9"/>
<path d="M90 -30L89.9999 1252.5" stroke="white" stroke-opacity="0.9"/>
<path d="M90 -30L89.9999 1252.5" stroke="white" stroke-opacity="0.9"/>
<path d="M60 -30L59.9999 1252.5" stroke="white" stroke-opacity="0.9"/>
<path d="M60 -30L59.9999 1252.5" stroke="white" stroke-opacity="0.9"/>
<path d="M60 -30L59.9999 1252.5" stroke="white" stroke-opacity="0.9"/>
<path d="M30 -30L29.9999 1252.5" stroke="white" stroke-opacity="0.9"/>
<path d="M30 -30L29.9999 1252.5" stroke="white" stroke-opacity="0.9"/>
<path d="M30 -30L29.9999 1252.5" stroke="white" stroke-opacity="0.9"/>
<path d="M0 -30L-5.60599e-05 1252.5" stroke="white" stroke-opacity="0.9"/>
<path d="M0 -30L-5.60599e-05 1252.5" stroke="white" stroke-opacity="0.9"/>
<path d="M0 -30L-5.60599e-05 1252.5" stroke="white" stroke-opacity="0.9"/>
</g>
<defs>
<clipPath id="clip0">
<rect width="150" height="150" fill="white"/>
</clipPath>
</defs>
</svg>
